<svg width="462" height="422" viewBox="0 0 462 422" fill="none" xmlns="http://www.w3.org/2000/svg">
<path d="M23 247C32.5 154.5 145 114 205 53.9997C327 -68.0003 459 58.0001 459 138.5C459 219 373.5 419 221.5 419C69.5001 419 12.7835 346.477 23 247Z" stroke="#64BCFC" stroke-width="6"/>
<path d="M5.00004 253C21 140.5 127.657 131.396 184.5 91C320 -5.29444 393 74.2825 393 140.5C393 206.718 309.307 399.5 184.5 399.5C59.6927 399.5 -6.58228 334.439 5.00004 253Z" stroke="#273A7D" stroke-width="6"/>
<circle cx="168.5" cy="177.5" r="8.5" stroke="#273A7D" stroke-width="4"/>
<circle cx="166" cy="357" r="6.5" stroke="#273A7D" stroke-width="3"/>
<circle cx="250.5" cy="126.5" r="8.5" stroke="#273A7D" stroke-width="4"/>
<line x1="216.908" y1="298.695" x2="216.52" y2="331.251" stroke="#273A7D" stroke-width="5"/>
<line x1="227.694" y1="295.752" x2="227.306" y2="328.307" stroke="#273A7D" stroke-width="5"/>
<line x1="238.48" y1="292.809" x2="238.092" y2="325.364" stroke="#273A7D" stroke-width="5"/>
<path d="M110.86 218C106.86 218 105.86 224.5 115.86 225C116.36 225.025 118.86 225 121.86 228.5" stroke="#273A7D" stroke-width="4"/>
<path d="M343.62 171.231C342.783 167.796 335.803 168.961 334.799 178.924C334.749 179.421 334.647 181.92 331 184.739" stroke="#273A7D" stroke-width="4"/>
<path d="M230 102.472C226.838 100.275 217.084 98.883 203.365 110.896C189.646 122.908 179.405 121.761 176 119.686" stroke="#E7E6E6" stroke-width="3"/>
<path d="M331.939 82.3321C335.779 82.6166 347.347 75.3611 350.439 93.3321C353.53 111.303 354.487 125.3 358.439 125.832" stroke="#E7E6E6" stroke-width="3"/>
<path d="M65.5001 295.5C66.481 299.224 64.7666 308.242 83 308C101.233 307.758 108.972 319.243 110.217 323.032" stroke="#E7E6E6" stroke-width="3"/>
<path d="M247.908 208.749C244.822 212.335 235.694 216.402 243.296 236.818C250.899 257.233 247.055 267.335 246.449 278.454" stroke="#E7E6E6" stroke-width="3"/>
<path d="M337.036 228C331.826 233.389 329.333 241 328.036 250.5C326.465 262 313.73 276.869 309.799 277.538" stroke="#E7E6E6" stroke-width="3"/>
</svg>
